PathFileType	4	(X/Y/Z)	 s02c0202.trc
DataRate	CameraRate	NumFrames	NumMarkers	Units	OrigDataRate	OrigDataStartFrame	OrigNumFrames
200	200	4	50	mm	200	1251	2000
Frame#	Time	racr			lacr			c7			jug			rlel			rdr			llel			ldr			s2			lic			ric			lasi			rasi			rpsi			lpsi			rgt			lgt			rth1			rth2			rth3			rth4			rlfc			rmfc			rsh1			rsh2			rsh3			rsh4			rlmal			rmmal			rtoe			rmt5			rmt1			lth1			lth2			lth4			lth3			llfc			lmfc			lsh1			lsh2			lsh3			lsh4			llmal			lmmal			lcal			ltoe			lmt5			SBIKE			LBIKE			RBIKE			
		X1	Y1	Z1	X2	Y2	Z2	X3	Y3	Z3	X4	Y4	Z4	X5	Y5	Z5	X6	Y6	Z6	X7	Y7	Z7	X8	Y8	Z8	X9	Y9	Z9	X10	Y10	Z10	X11	Y11	Z11	X12	Y12	Z12	X13	Y13	Z13	X14	Y14	Z14	X15	Y15	Z15	X16	Y16	Z16	X17	Y17	Z17	X18	Y18	Z18	X19	Y19	Z19	X20	Y20	Z20	X21	Y21	Z21	X22	Y22	Z22	X23	Y23	Z23	X24	Y24	Z24	X25	Y25	Z25	X26	Y26	Z26	X27	Y27	Z27	X28	Y28	Z28	X29	Y29	Z29	X30	Y30	Z30	X31	Y31	Z31	X32	Y32	Z32	X33	Y33	Z33	X34	Y34	Z34	X35	Y35	Z35	X36	Y36	Z36	X37	Y37	Z37	X38	Y38	Z38	X39	Y39	Z39	X40	Y40	Z40	X41	Y41	Z41	X42	Y42	Z42	X43	Y43	Z43	X44	Y44	Z44	X45	Y45	Z45	X46	Y46	Z46	X47	Y47	Z47	X48	Y48	Z48	X49	Y49	Z49	X50	Y50	Z50	
1251	6.2550	546.513223	1187.830737	-137.457421	594.848356	1204.865184	-440.295323	554.464758	1234.231832	-287.435686	516.263810	1099.581262	-292.282855	529.395911	965.747080	-12.742017	688.209441	884.450108	-112.751027	538.635723	998.389919	-630.940333	694.086079	885.112516	-528.949412	22.988178	1137.485051	-344.331404	147.765302	1091.482316	-485.247920	137.225517	1137.820400	-189.679294	187.248523	1058.562076	-454.338145	186.065493	1113.195145	-216.588781	37.995878	1172.404071	-302.334530	52.821976	1174.032183	-386.294150	121.148536	1082.008309	-144.045039	92.332649	1016.101383	-498.026049	211.880151	1058.961066	-144.594406	298.973981	1049.870223	-152.703245	371.217385	1010.190270	-128.595221	308.834461	1072.966744	-182.019617	493.672903	928.114964	-159.796552	484.156793	902.881024	-273.504261	468.575162	819.708523	-143.357082	443.755554	735.602888	-158.309557	384.222016	673.296921	-152.250630	457.192709	729.780405	-195.896595	312.711118	571.467608	-154.051463	322.217330	584.636795	-235.347349	508.738875	474.204397	-185.758827	397.528840	480.236430	-128.595503	428.105411	487.862090	-235.125857	188.478773	909.624078	-521.035044	250.372363	848.063227	-523.568370	280.563533	865.650264	-511.663595	272.027937	761.733705	-521.575291	320.063514	675.193039	-499.045963	328.327395	646.392741	-396.813729	281.177798	580.135021	-517.894450	266.689022	496.234790	-501.687208	208.689540	426.804073	-500.418383	287.603534	490.789896	-466.761062	155.314174	335.727584	-484.114061	171.072990	327.851505	-407.319448	79.373746	324.683005	-442.669567	306.240262	147.943889	-435.961705	208.193055	188.117768	-501.408216	-162.226284	859.953634	-309.161475	37.283968	86.684101	-514.283646	34.020668	82.706178	-114.400632	
1252	6.2600	545.256698	1187.959693	-135.452133	596.080548	1202.621591	-438.238433	554.551578	1233.297832	-285.448563	515.711712	1098.808153	-289.732365	528.719438	965.313853	-12.071209	688.105691	884.472173	-112.338319	539.740728	998.663788	-631.381499	694.271742	885.079258	-528.561684	23.464587	1138.727990	-345.876191	148.493050	1092.411824	-486.470322	135.993653	1137.394942	-191.826925	187.948074	1059.597567	-455.407036	185.706127	1112.807275	-217.809582	38.327196	1173.829926	-304.137558	53.382536	1175.243170	-387.930505	121.092648	1081.539918	-145.784860	93.214660	1016.819601	-499.300630	211.819195	1056.867379	-144.781185	298.544876	1045.728313	-152.453618	369.890154	1004.511204	-127.736673	309.114343	1068.234473	-181.857347	490.709391	919.357428	-158.225384	481.783001	894.893607	-271.673587	466.770147	810.126329	-142.282644	442.953617	725.502589	-157.447762	384.536683	662.259295	-152.011603	456.602181	720.260353	-195.061566	315.052917	559.865202	-154.995921	324.335779	573.400902	-235.930425	515.360668	471.827768	-185.131978	403.750213	472.699779	-128.315346	434.185657	481.898934	-234.835429	191.260915	911.380299	-521.042133	254.136058	850.851853	-522.887671	283.925985	868.850095	-510.802667	277.169742	764.856023	-521.137285	325.735283	678.477827	-498.701803	333.001524	649.763890	-396.184404	284.673237	583.821620	-517.201218	267.503913	500.557919	-500.709132	207.285656	433.153416	-499.513286	287.999760	494.526794	-465.559018	150.419762	343.762350	-483.010737	166.157758	335.130765	-406.063174	74.322553	333.997620	-441.085456	297.486977	152.830201	-436.262729	199.997680	195.020629	-501.041163	-162.254857	859.950346	-309.089895	37.270501	86.701546	-514.275509	34.029567	82.657993	-114.416069	
1253	6.2650	543.927638	1188.427443	-133.390895	597.177789	1200.604429	-436.408295	554.737941	1232.301531	-283.802168	515.146435	1098.001463	-287.140070	528.200563	965.003074	-11.535126	688.035614	884.554260	-111.906601	540.745757	998.882769	-631.602376	694.364377	884.980897	-528.261956	23.866237	1139.747652	-347.290850	149.344646	1093.260597	-487.430434	135.723673	1137.167114	-193.013840	188.709631	1060.494300	-456.197584	185.836767	1112.515678	-218.295572	38.689404	1175.029852	-305.873799	54.124328	1176.390561	-389.612160	121.365726	1080.565790	-147.826249	94.286680	1017.364750	-500.665637	211.542027	1054.040617	-145.469907	298.387258	1040.944893	-152.775208	368.529424	998.488447	-126.922397	309.542016	1063.626666	-181.266527	487.518171	909.848664	-156.644495	479.105984	886.174497	-269.648532	464.291516	799.826525	-140.804945	442.509501	715.206108	-155.876751	384.939540	650.076348	-151.779880	456.260652	709.346658	-194.099528	317.921195	547.943266	-155.462401	326.998712	561.619070	-236.467214	521.494751	468.118971	-184.616605	409.795780	464.601792	-128.121340	440.099661	475.266191	-234.605456	194.195896	913.090200	-521.013067	258.052233	853.653629	-522.099194	287.400687	872.137449	-509.859099	282.536336	768.089480	-520.598679	331.528566	681.835416	-498.362055	337.896916	653.197185	-395.392754	288.467628	587.660329	-516.583486	268.519252	505.044759	-499.805418	206.196134	439.605842	-498.632533	288.753536	498.709109	-464.676722	146.106464	352.300810	-482.117283	161.931983	342.924553	-405.096661	69.879775	343.819834	-439.827513	289.332227	158.140906	-436.565474	192.406572	202.568479	-500.632467	-162.226665	859.870936	-309.220697	37.250804	86.710433	-514.268812	34.250097	82.349686	-114.455386	
1254	6.2700	543.019652	1188.690816	-131.692257	598.431526	1198.887955	-434.617034	554.910405	1231.519601	-282.275903	515.288131	1097.211489	-284.981799	527.651661	964.781153	-10.901963	687.998327	884.628565	-111.516531	541.601661	999.010509	-631.702549	694.356727	884.702112	-527.847723	24.148142	1140.494432	-348.618376	150.372510	1093.885660	-488.049288	136.036567	1137.304274	-193.456846	189.477680	1060.997019	-456.614157	186.793146	1112.579373	-217.534904	38.961881	1176.046742	-307.632039	55.087137	1177.213508	-391.263520	121.365230	1078.787648	-149.997796	95.527678	1017.625934	-502.315815	211.610104	1051.270467	-145.453209	298.110947	1036.363002	-152.004276	367.087901	992.156926	-125.905811	309.962713	1058.634905	-180.595036	484.307833	899.389408	-155.319789	476.061926	876.997613	-267.539209	461.487342	788.760197	-139.385644	441.979857	704.121595	-154.637814	385.401597	637.439723	-151.734353	455.172913	698.767954	-193.505688	321.189368	535.651261	-156.121182	329.990226	549.623004	-237.019087	527.248424	463.060817	-183.698131	415.443896	455.818649	-127.929668	446.138429	468.238557	-234.666049	197.263670	914.876365	-520.996674	262.085989	856.467498	-521.174938	291.064032	875.445783	-508.792895	288.542776	771.640737	-520.106513	337.471449	685.390127	-497.893866	343.070312	656.640355	-394.690590	292.434773	591.726736	-516.090999	269.821929	509.789238	-498.972671	205.473790	446.361971	-497.730189	289.770533	502.950022	-463.700851	142.604471	361.121230	-481.444246	158.290066	351.145520	-404.389405	66.154078	354.112166	-438.962069	281.421314	163.723234	-436.558283	185.474612	210.432134	-500.350827	-162.141646	859.991869	-309.050078	37.226922	86.701389	-514.254995	34.311298	82.304649	-114.540417	
